<mxfile host="app.diagrams.net" modified="2024-05-14T09:57:31.405Z" agent="Mozilla/5.0 (Macintosh; Intel Mac OS X 10_15_7) AppleWebKit/537.36 (KHTML, like Gecko) Chrome/124.0.0.0 Safari/537.36" etag="Fy1ER0taFRe9hcmE2qUB" version="24.4.0" type="device">
  <diagram name="Page-1" id="zJ-xPo4HVrxSjCI9PEKk">
    <mxGraphModel dx="1804" dy="531" grid="1" gridSize="10" guides="1" tooltips="1" connect="1" arrows="1" fold="1" page="1" pageScale="1" pageWidth="850" pageHeight="1100" math="0" shadow="0">
      <root>
        <mxCell id="0" />
        <mxCell id="1" parent="0" />
        <mxCell id="sOXB0L3L93VWi7tkyYTA-1" value="&lt;ul&gt;&lt;li&gt;&lt;font style=&quot;font-size: 18px;&quot;&gt;Home&lt;/font&gt;&lt;/li&gt;&lt;li&gt;&lt;font style=&quot;font-size: 18px;&quot;&gt;About&lt;/font&gt;&lt;/li&gt;&lt;li&gt;&lt;span style=&quot;font-size: 18px;&quot;&gt;Contact Us&lt;/span&gt;&lt;/li&gt;&lt;li&gt;&lt;span style=&quot;font-size: 18px;&quot;&gt;Services&lt;/span&gt;&lt;/li&gt;&lt;/ul&gt;" style="text;html=1;align=center;verticalAlign=middle;whiteSpace=wrap;rounded=0;" vertex="1" parent="1">
          <mxGeometry x="-210" y="110" width="190" height="220" as="geometry" />
        </mxCell>
        <mxCell id="sOXB0L3L93VWi7tkyYTA-6" value="" style="edgeStyle=orthogonalEdgeStyle;rounded=0;orthogonalLoop=1;jettySize=auto;html=1;" edge="1" parent="1" source="sOXB0L3L93VWi7tkyYTA-2" target="sOXB0L3L93VWi7tkyYTA-5">
          <mxGeometry relative="1" as="geometry" />
        </mxCell>
        <mxCell id="sOXB0L3L93VWi7tkyYTA-8" value="" style="edgeStyle=orthogonalEdgeStyle;rounded=0;orthogonalLoop=1;jettySize=auto;html=1;" edge="1" parent="1" source="sOXB0L3L93VWi7tkyYTA-2" target="sOXB0L3L93VWi7tkyYTA-7">
          <mxGeometry relative="1" as="geometry" />
        </mxCell>
        <mxCell id="sOXB0L3L93VWi7tkyYTA-11" value="" style="edgeStyle=orthogonalEdgeStyle;rounded=0;orthogonalLoop=1;jettySize=auto;html=1;" edge="1" parent="1" source="sOXB0L3L93VWi7tkyYTA-2" target="sOXB0L3L93VWi7tkyYTA-10">
          <mxGeometry relative="1" as="geometry" />
        </mxCell>
        <mxCell id="sOXB0L3L93VWi7tkyYTA-2" value="Home" style="rounded=0;whiteSpace=wrap;html=1;" vertex="1" parent="1">
          <mxGeometry x="230" y="50" width="120" height="60" as="geometry" />
        </mxCell>
        <mxCell id="sOXB0L3L93VWi7tkyYTA-5" value="Contact Us" style="rounded=0;whiteSpace=wrap;html=1;" vertex="1" parent="1">
          <mxGeometry x="230" y="190" width="120" height="60" as="geometry" />
        </mxCell>
        <mxCell id="sOXB0L3L93VWi7tkyYTA-7" value="About" style="rounded=0;whiteSpace=wrap;html=1;" vertex="1" parent="1">
          <mxGeometry x="20" y="200" width="120" height="60" as="geometry" />
        </mxCell>
        <mxCell id="sOXB0L3L93VWi7tkyYTA-13" value="" style="edgeStyle=orthogonalEdgeStyle;rounded=0;orthogonalLoop=1;jettySize=auto;html=1;" edge="1" parent="1" source="sOXB0L3L93VWi7tkyYTA-10" target="sOXB0L3L93VWi7tkyYTA-12">
          <mxGeometry relative="1" as="geometry" />
        </mxCell>
        <mxCell id="sOXB0L3L93VWi7tkyYTA-16" value="" style="edgeStyle=orthogonalEdgeStyle;rounded=0;orthogonalLoop=1;jettySize=auto;html=1;" edge="1" parent="1" source="sOXB0L3L93VWi7tkyYTA-10" target="sOXB0L3L93VWi7tkyYTA-15">
          <mxGeometry relative="1" as="geometry" />
        </mxCell>
        <mxCell id="sOXB0L3L93VWi7tkyYTA-10" value="Services" style="rounded=0;whiteSpace=wrap;html=1;" vertex="1" parent="1">
          <mxGeometry x="440" y="280" width="120" height="60" as="geometry" />
        </mxCell>
        <mxCell id="sOXB0L3L93VWi7tkyYTA-12" value="Web Development" style="rounded=0;whiteSpace=wrap;html=1;" vertex="1" parent="1">
          <mxGeometry x="440" y="400" width="120" height="60" as="geometry" />
        </mxCell>
        <mxCell id="sOXB0L3L93VWi7tkyYTA-15" value="Web Design" style="rounded=0;whiteSpace=wrap;html=1;" vertex="1" parent="1">
          <mxGeometry x="610" y="400" width="120" height="60" as="geometry" />
        </mxCell>
      </root>
    </mxGraphModel>
  </diagram>
</mxfile>
